<?xml version="1.0" encoding="utf-8"?>
<!-- Generator: Adobe Illustrator 25.4.1, SVG Export Plug-In . SVG Version: 6.00 Build 0)  -->
<svg version="1.1" id="Layer_1" xmlns="http://www.w3.org/2000/svg" xmlns:xlink="http://www.w3.org/1999/xlink" x="0px" y="0px"
	 viewBox="0 0 2000 2000" style="enable-background:new 0 0 2000 2000;" xml:space="preserve">
<style type="text/css">
	.st0{fill:#1454A1;}
</style>
<g>
	<path class="st0" d="M537.15,998.15c-0.05,0.58-0.1,1.14-0.14,1.72c-0.17,2.69-0.33,5.37-0.49,8.06c0.33,3.71,0.42,7.36-2.18,10.47
		c-8.88,38.76-31.87,65.94-67.77,82.4c-45.39,20.81-88.42,16.09-128.42-13.32c-18.14-13.35-31.11-31.1-37.92-52.94
		c-1.78-1.36-2.39-3.2-2.14-5.37c-0.6-0.71-0.79-1.51-0.6-2.41c-3.26-5.84-4.63-12.14-4.46-18.8c-0.24-2.71-0.47-5.42-0.7-8.12
		c-3.43-32.86-0.76-65.82-1.33-98.71c-0.14-8.61-2.12-17.49,1.42-25.96l0.25-0.37c11.33-3.69,22.66-3.36,33.98,0.04
		c1.01,0.18,2.04,0.35,3.05,0.52c2.11-0.33,3.82,0.33,5.08,2.07l0.13,0.06c2.26-0.1,4.08,0.7,5.35,2.65
		c12.36,5.88,19.54,15.55,21.26,29.19c4.34,13.76,1.25,27.84,1.72,41.76c0.54,16.21,0.42,32.45,0.58,48.68
		c6.61,20.13,18.45,35.13,40.09,40.08c6.14,1.41,5.47,5.78,5.77,10.17c1.45,21.08,12.64,35.13,31.09,39.16
		c16.21,3.54,33.75-6.19,42.34-23.92c1.42-2.92,2.9-4.83,5.77-6.58c18.82-11.49,19.8-26.63,2.95-40.21
		c-6.23,0.01-12.46,0.04-18.68,0.05c-15.8,13.94-16.82,21.71-3.11,37.45c4.71,5.4,2.25,8.75-0.57,12.6
		c-7.66,10.47-22.07,13.59-34.45,7.73c-11.74-5.55-18.55-19.92-15.32-32.17c0.84-3.17,2.39-6.54,5.61-6.56
		c17.79-0.1,27.1-12.25,36.31-24.72c6.59-16.54,5.12-33.85,4.93-51.05c-0.17-14.58-1.01-29.21-0.12-43.73
		c2.01-32.69,36.85-55.83,67.38-45.61c3.88,1.3,4.55,3.88,4.53,7C538.17,919.01,540.4,958.61,537.15,998.15z"/>
	<path class="st0" d="M415.26,1031.77c-20.89-1.17-38.57-17.31-40.06-36.85c-0.29-3.66-1.94-8.85,3.61-9.89
		c5.31-1,5.73,3.38,6.69,7.59c4.7,20.68,12.27,27.77,28.77,27.72c15.65-0.06,25.55-9.43,29.93-28.86c0.84-3.75,1.28-7.13,6.12-6.75
		c4.48,0.36,3.88,3.81,4.05,6.89C455.45,1010.45,433.74,1032.81,415.26,1031.77z"/>
	<path class="st0" d="M493.88,1037.89c-0.1,6.91-4.93,10.77-10.74,12.67c-7.61-1.36-11.79-5.69-11.73-12.49
		c0.07-6.67,4.97-10.65,11.26-10.72C488.98,1027.27,493.98,1031.06,493.88,1037.89z"/>
	<g>
		<g>
			<path d="M583.83,1069.68V906.64h24.92l71.27,119.02h-13.04l70.1-119.02H762l0.47,163.04h-29.11V951.59h5.82l-59.16,99.68h-13.74
				l-60.56-99.68h6.99v118.08H583.83z"/>
			<path d="M861.92,1071.31c-13.82,0-25.89-2.75-36.22-8.27c-10.33-5.51-18.32-13.04-23.99-22.59c-5.67-9.55-8.5-20.53-8.5-32.96
				c0-12.42,2.75-23.41,8.27-32.96c5.51-9.55,13.12-17.08,22.83-22.59c9.7-5.51,20.77-8.27,33.19-8.27c12.11,0,22.9,2.68,32.37,8.04
				c9.47,5.36,16.92,12.85,22.36,22.48c5.43,9.63,8.15,21.04,8.15,34.24c0,1.09-0.04,2.45-0.12,4.08c-0.08,1.63-0.2,3.07-0.35,4.31
				H816.27v-19.33h88.27l-11.65,6.06c0.15-6.99-1.28-13.24-4.31-18.75c-3.03-5.51-7.18-9.78-12.46-12.81
				c-5.28-3.03-11.49-4.54-18.63-4.54c-6.99,0-13.24,1.51-18.75,4.54c-5.51,3.03-9.75,7.34-12.69,12.93
				c-2.95,5.59-4.43,12.03-4.43,19.33v4.66c0,7.45,1.67,14.05,5.01,19.8c3.34,5.75,8.11,10.21,14.32,13.39
				c6.21,3.18,13.43,4.78,21.66,4.78c6.99,0,13.28-1.17,18.87-3.49s10.56-5.74,14.91-10.25l15.84,18.17
				c-5.75,6.52-12.85,11.49-21.31,14.91C882.45,1069.6,872.78,1071.31,861.92,1071.31z"/>
			<path d="M1000.96,1071.31c-11.96,0-22.71-2.64-32.26-7.92c-9.55-5.28-17.04-12.69-22.48-22.24c-5.44-9.55-8.15-20.76-8.15-33.66
				c0-12.73,2.71-23.91,8.15-33.54c5.43-9.63,12.93-17.08,22.48-22.36c9.55-5.28,20.3-7.92,32.26-7.92c10.4,0,19.72,2.29,27.95,6.87
				c8.23,4.58,14.75,11.57,19.56,20.96c4.81,9.4,7.22,21.39,7.22,35.98c0,14.44-2.33,26.4-6.99,35.87
				c-4.66,9.47-11.06,16.5-19.21,21.08C1021.34,1069.02,1011.83,1071.31,1000.96,1071.31z M1004.45,1046.62
				c6.99,0,13.24-1.59,18.75-4.77c5.51-3.18,9.93-7.76,13.28-13.74c3.34-5.97,5.01-12.85,5.01-20.61c0-7.92-1.67-14.79-5.01-20.61
				c-3.34-5.82-7.77-10.32-13.28-13.51c-5.51-3.18-11.76-4.77-18.75-4.77c-6.99,0-13.24,1.59-18.75,4.77
				c-5.51,3.18-9.94,7.69-13.28,13.51c-3.34,5.82-5.01,12.69-5.01,20.61c0,7.77,1.67,14.64,5.01,20.61
				c3.34,5.98,7.76,10.56,13.28,13.74C991.21,1045.03,997.47,1046.62,1004.45,1046.62z M1042.42,1069.68v-29.35l0.7-33.07
				l-2.33-33.07v-77.33h29.35v172.82H1042.42z"/>
			<path d="M1122.77,924.81c-5.44,0-9.9-1.71-13.39-5.12c-3.49-3.41-5.24-7.61-5.24-12.58c0-4.66,1.75-8.69,5.24-12.11
				c3.49-3.41,7.96-5.12,13.39-5.12c5.43,0,9.9,1.59,13.39,4.77c3.49,3.18,5.24,7.26,5.24,12.23c0,4.97-1.71,9.2-5.12,12.69
				C1132.86,923.06,1128.36,924.81,1122.77,924.81z M1108.33,1069.68V945.31h28.88v124.37H1108.33z"/>
			<path d="M1253.89,1072.01c-12.58,0-24.15-2.06-34.7-6.17c-10.56-4.11-19.76-9.97-27.6-17.58c-7.84-7.61-13.94-16.46-18.28-26.55
				c-4.35-10.09-6.52-21.27-6.52-33.54c0-12.26,2.17-23.44,6.52-33.54c4.34-10.09,10.48-18.94,18.4-26.55
				c7.92-7.61,17.16-13.47,27.72-17.58c10.56-4.11,22.13-6.17,34.7-6.17c13.35,0,25.54,2.29,36.57,6.87
				c11.02,4.58,20.34,11.38,27.95,20.38l-19.56,18.4c-6.06-6.37-12.73-11.14-20.03-14.32c-7.3-3.18-15.14-4.77-23.52-4.77
				c-8.54,0-16.34,1.4-23.41,4.19c-7.07,2.79-13.2,6.75-18.4,11.88c-5.2,5.12-9.28,11.18-12.23,18.17
				c-2.95,6.99-4.42,14.67-4.42,23.06s1.47,16.07,4.42,23.06c2.95,6.99,7.02,13.04,12.23,18.17c5.2,5.12,11.33,9.08,18.4,11.88
				c7.06,2.79,14.87,4.19,23.41,4.19c8.38,0,16.22-1.59,23.52-4.78c7.3-3.18,13.97-8.04,20.03-14.56l19.56,18.4
				c-7.61,9.01-16.93,15.84-27.95,20.5C1279.67,1069.68,1267.4,1072.01,1253.89,1072.01z"/>
			<path d="M1382.46,1071.31c-9.32,0-17.47-1.59-24.46-4.77s-12.38-7.61-16.19-13.28c-3.81-5.67-5.71-12.07-5.71-19.21
				c0-6.99,1.67-13.28,5.01-18.87c3.34-5.59,8.81-10.01,16.42-13.28c7.61-3.26,17.7-4.89,30.28-4.89h36.1v19.33h-34
				c-9.78,0-16.42,1.59-19.91,4.78c-3.49,3.18-5.24,7.18-5.24,11.99c0,5.12,2.1,9.24,6.29,12.34c4.19,3.11,10.02,4.66,17.47,4.66
				c7.14,0,13.54-1.63,19.21-4.89c5.67-3.26,9.82-8.07,12.46-14.44l4.66,17.47c-2.79,7.3-7.77,12.97-14.91,17
				C1402.79,1069.29,1393.64,1071.31,1382.46,1071.31z M1421.58,1069.68v-25.39l-1.4-5.12v-44.02c0-8.54-2.6-15.18-7.8-19.91
				c-5.2-4.73-13.08-7.1-23.64-7.1c-6.83,0-13.59,1.09-20.26,3.26c-6.68,2.18-12.42,5.2-17.24,9.08l-11.41-21.19
				c6.83-5.12,14.83-9,23.99-11.65c9.16-2.64,18.71-3.96,28.65-3.96c18.17,0,32.14,4.35,41.92,13.04
				c9.78,8.7,14.67,22.05,14.67,40.06v72.9H1421.58z"/>
			<path d="M1486.33,1069.68V945.31h27.72v34.24l-3.26-10.02c3.57-8.38,9.39-14.79,17.47-19.21c8.07-4.43,17.93-6.64,29.58-6.64
				v27.72c-1.09-0.15-2.18-0.27-3.26-0.35c-1.09-0.08-2.1-0.12-3.03-0.12c-11.18,0-20.03,3.18-26.55,9.55
				c-6.52,6.37-9.78,16.07-9.78,29.11v60.09H1486.33z"/>
			<path d="M1642.38,1071.31c-13.82,0-25.89-2.75-36.22-8.27c-10.33-5.51-18.32-13.04-23.99-22.59c-5.67-9.55-8.5-20.53-8.5-32.96
				c0-12.42,2.75-23.41,8.27-32.96c5.51-9.55,13.12-17.08,22.82-22.59c9.7-5.51,20.77-8.27,33.19-8.27c12.11,0,22.9,2.68,32.37,8.04
				c9.47,5.36,16.92,12.85,22.36,22.48c5.43,9.63,8.15,21.04,8.15,34.24c0,1.09-0.04,2.45-0.12,4.08c-0.08,1.63-0.2,3.07-0.35,4.31
				h-103.64v-19.33H1685l-11.65,6.06c0.15-6.99-1.28-13.24-4.31-18.75c-3.03-5.51-7.18-9.78-12.46-12.81
				c-5.28-3.03-11.49-4.54-18.63-4.54c-6.99,0-13.24,1.51-18.75,4.54c-5.51,3.03-9.75,7.34-12.69,12.93
				c-2.95,5.59-4.42,12.03-4.42,19.33v4.66c0,7.45,1.67,14.05,5.01,19.8c3.34,5.75,8.11,10.21,14.32,13.39
				c6.21,3.18,13.43,4.78,21.66,4.78c6.99,0,13.28-1.17,18.87-3.49s10.56-5.74,14.91-10.25l15.84,18.17
				c-5.75,6.52-12.85,11.49-21.31,14.91C1662.91,1069.6,1653.24,1071.31,1642.38,1071.31z"/>
		</g>
	</g>
	<path class="st0" d="M444.88,951.5v11.93c0,3.35-2.73,6.08-6.08,6.08h-11.99v13.19c0,3.35-2.73,6.08-6.08,6.08H408.8
		c-3.35,0-6.08-2.73-6.08-6.08v-13.19h-13.19c-3.35,0-6.08-2.73-6.08-6.08V951.5c0-3.35,2.73-6.08,6.08-6.08h13.19v-11.99
		c0-3.35,2.73-6.08,6.08-6.08h11.93c3.35,0,6.08,2.73,6.08,6.08v11.99h11.99C442.14,945.42,444.88,948.15,444.88,951.5z"/>
</g>
</svg>
